<svg id="Warstwa_1" data-name="Warstwa 1" xmlns="http://www.w3.org/2000/svg" viewBox="0 0 307.33 45.25"><defs><style>.cls-1{fill:#e51339;}.cls-2{fill:#fff;}.cls-3{fill:#1d1d1b;}</style></defs><title>logo</title><path class="cls-1" d="M44.18,22.62A20.89,20.89,0,1,1,23.3,1.74,20.88,20.88,0,0,1,44.18,22.62"/><path class="cls-2" d="M17.57,28.21H13.75V24.39h3.82Zm0,3.82h3.82V28.21H17.57Zm3.82,3.82h3.82V32H21.39ZM32.85,16.76V12.94H25.21v3.82H21.39V12.94H13.75v3.82H9.93v7.64h3.82V16.76h7.64v3.82h3.82V16.76h7.64v7.64h3.82V16.76ZM29,28.21h3.82V24.39H29ZM25.21,32H29V28.21H25.21Z"/><path class="cls-3" d="M85.37,14.45V37.07a3,3,0,0,1-2.14,3,33.75,33.75,0,0,1-10.61,1.69c-8.69,0-14.51-3.17-14.51-11.27s6.7-11.2,14.44-11.2h7.81V14.45c0-3.76-2.87-6.34-7.81-6.34a15.92,15.92,0,0,0-7.37,1.7,5.57,5.57,0,0,1-2.5.81,2.32,2.32,0,0,1-1.11-4.34,22.2,22.2,0,0,1,10.76-2.8c7.22,0,13,3.61,13,11M72.4,24c-5.38,0-9.28,1.77-9.28,6.63,0,5.23,3.9,6.56,9.5,6.56A28.15,28.15,0,0,0,80.36,36V24Z"/><path class="cls-3" d="M139.81,16.36V39.2a2.51,2.51,0,1,1-5,0v-23c0-5.38-3.61-8.1-7.88-8.1a12,12,0,0,0-7.59,2.8V39.2a2.51,2.51,0,1,1-5,0v-26a4.71,4.71,0,0,0-2.72-4.05,8.71,8.71,0,0,0-4.42-1,31.24,31.24,0,0,0-8.33,1.33V39.2a2.5,2.5,0,1,1-5,0V8.41a3.11,3.11,0,0,1,2.43-3.1A37.45,37.45,0,0,1,107.4,3.47,12.48,12.48,0,0,1,116.68,7a17.53,17.53,0,0,1,10.17-3.54c7.59,0,13,4.57,13,12.89"/><path class="cls-3" d="M176.5,17.69v9.94c0,8.77-5.38,14.15-14.29,14.15-8.69,0-14.29-5.23-14.29-14.15V17.69c0-8.91,5.52-14.22,14.29-14.22S176.5,8.85,176.5,17.69m-23.58-.37V28c0,5.82,3.83,9.14,9.28,9.14s9.28-3.31,9.28-9.14V17.32c0-5.89-3.76-9.21-9.28-9.21s-9.28,3.32-9.28,9.21"/><path class="cls-3" d="M201.26,4a2.45,2.45,0,0,1,2.06,2.43,2.28,2.28,0,0,1-2.43,2.28,44.56,44.56,0,0,0-4.64-.52c-2.87,0-5.08,2.06-5.08,5.53V39.28a2.4,2.4,0,0,1-2.5,2.5,2.44,2.44,0,0,1-2.51-2.5V13.56c0-6.19,4-10.09,9.8-10.09a25.91,25.91,0,0,1,5.3.52"/><path class="cls-3" d="M234.34,14.45V37.07a3,3,0,0,1-2.14,3,33.73,33.73,0,0,1-10.61,1.69c-8.69,0-14.51-3.17-14.51-11.27s6.7-11.2,14.44-11.2h7.81V14.45c0-3.76-2.87-6.34-7.81-6.34a15.92,15.92,0,0,0-7.37,1.7,5.56,5.56,0,0,1-2.51.81,2.32,2.32,0,0,1-1.1-4.34,22.19,22.19,0,0,1,10.76-2.8c7.22,0,13,3.61,13,11m-13,9.51c-5.38,0-9.28,1.77-9.28,6.63,0,5.23,3.9,6.56,9.5,6.56A28.2,28.2,0,0,0,229.33,36V24Z"/><path class="cls-3" d="M270.07,16.66V39.27a2.44,2.44,0,0,1-2.5,2.51,2.4,2.4,0,0,1-2.51-2.51V16.59c0-5.38-3-8.47-8.62-8.47a30.63,30.63,0,0,0-8.62,1.33V39.27a2.4,2.4,0,0,1-2.5,2.51,2.44,2.44,0,0,1-2.51-2.51V8.41a3.1,3.1,0,0,1,2.51-3.1,37,37,0,0,1,11.12-1.84c9,0,13.63,4.86,13.63,13.19"/><path class="cls-3" d="M304.92,14.45V37.07a3,3,0,0,1-2.14,3,33.73,33.73,0,0,1-10.61,1.69c-8.7,0-14.51-3.17-14.51-11.27s6.7-11.2,14.44-11.2h7.81V14.45c0-3.76-2.87-6.34-7.81-6.34a15.92,15.92,0,0,0-7.37,1.7,5.58,5.58,0,0,1-2.5.81,2.32,2.32,0,0,1-1.1-4.34,22.19,22.19,0,0,1,10.76-2.8c7.22,0,13,3.61,13,11m-13,9.51c-5.38,0-9.28,1.77-9.28,6.63,0,5.23,3.9,6.56,9.5,6.56A28.2,28.2,0,0,0,299.91,36V24Z"/></svg>