<?xml version="1.0" encoding="iso-8859-1"?>
<!-- Generator: Adobe Illustrator 19.0.0, SVG Export Plug-In . SVG Version: 6.00 Build 0)  -->
<svg xmlns="http://www.w3.org/2000/svg" xmlns:xlink="http://www.w3.org/1999/xlink" version="1.1" id="Layer_1" x="0px" y="0px" viewBox="0 0 512 512" style="enable-background:new 0 0 512 512;" xml:space="preserve" width="512" height="512">
<g id="XMLID_1126_">
	<path id="XMLID_1127_" d="M413.643,257.082c5.396-13.155,8.133-27.088,8.133-41.517c0,0-0.015-47.312-0.03-47.51   c-0.308-13.543-3.865-26.851-10.351-38.604c-10.489-19.007-32.611-55.269-62.915-84.58C317.699,15.097,286.583,0,256,0   c-29.696,0-59.934,14.26-89.873,42.385c-3.019,2.836-3.167,7.583-0.331,10.602c2.836,3.019,7.582,3.167,10.602,0.331   C203.464,27.892,230.246,15,256,15c26.558,0,54.164,13.677,82.052,40.652c28.896,27.95,50.127,62.775,60.21,81.046   c5.57,10.093,8.514,21.599,8.514,33.272v24.66c-4.772-3.343-10.25-7.499-16.158-11.982c-15.78-11.973-35.558-26.971-58.127-39.069   c-0.115-0.066-0.231-0.13-0.35-0.19c-22.928-12.243-48.724-21.467-76.142-21.467c-54.582,0-102.747,36.544-134.618,60.727   c-5.909,4.483-11.386,8.639-16.158,11.982v-24.66c0-11.673,2.944-23.179,8.514-33.271c8.18-14.823,21.714-37.057,39.733-58.807   c2.643-3.189,2.199-7.917-0.991-10.56c-3.188-2.643-7.917-2.2-10.56,0.991c-18.764,22.648-32.824,45.743-41.315,61.129   c-6.485,11.753-10.043,25.061-10.351,38.604c-0.016,0.198-0.03,47.51-0.03,47.51c0,14.429,2.737,28.362,8.133,41.517   c-22.146,9.149-37.774,30.97-37.774,56.381v170.463c0,4.142,3.358,7.5,7.5,7.5s7.5-3.358,7.5-7.5V313.463   c0-25.354,20.626-45.98,45.979-45.98h58.284c5.677,10.363,16.688,17.407,29.315,17.407h93.68c12.626,0,23.637-7.044,29.315-17.407   h58.284c25.353,0,45.979,20.626,45.979,45.98v56.276c0,4.142,3.358,7.5,7.5,7.5s7.5-3.358,7.5-7.5v-56.276   C451.417,288.052,435.789,266.231,413.643,257.082z M336.242,162.989c3.464,2.074,6.853,4.199,10.16,6.354   c-2.736,2.108-6.116,3.286-9.721,3.286c-0.147,0-0.292-0.011-0.439-0.015V162.989z M321.242,154.657v21.76h-44.974   c-3.58-7.67-11.303-12.856-20.269-12.856s-16.688,5.186-20.269,12.856h-44.974v-21.76c20.161-10.281,42.293-17.736,65.242-17.736   S301.082,144.376,321.242,154.657z M248.631,185.291c0.349-3.837,3.517-6.73,7.369-6.73s7.021,2.893,7.369,6.73l4.304,47.349   h-23.347L248.631,185.291z M175.758,172.616c-0.146,0.004-0.292,0.014-0.439,0.014c-3.56,0-6.955-1.188-9.706-3.296   c3.302-2.152,6.686-4.274,10.145-6.344V172.616z M121.562,252.483c-2.92,0-5.79,0.219-8.602,0.618   c-5.13-11.845-7.737-24.452-7.737-37.536v-3.069c6.9-3.998,15.196-10.29,25.225-17.899c6.751-5.123,14.277-10.829,22.438-16.605   c5.797,6.101,13.867,9.637,22.432,9.637c0.147,0,0.292-0.012,0.439-0.014v63.872c0,0.334,0.016,0.664,0.025,0.996H121.562z    M302.84,269.89h-93.68c-10.147,0-18.402-8.255-18.402-18.402v-60.07h42.254l-3.773,41.501c-0.342,3.768,0.924,7.532,3.476,10.325   c2.551,2.794,6.185,4.396,9.968,4.396h26.633c3.784,0,7.417-1.603,9.968-4.396c2.552-2.793,3.818-6.557,3.476-10.326l-3.773-41.5   h42.254v60.07C321.242,261.634,312.987,269.89,302.84,269.89z M336.217,252.483c0.01-0.332,0.025-0.662,0.025-0.996v-63.873   c0.147,0.002,0.292,0.015,0.439,0.015c8.526,0,16.634-3.588,22.421-9.645c8.166,5.778,15.695,11.488,22.45,16.613   c10.028,7.609,18.324,13.901,25.225,17.899v3.069c0,13.084-2.606,25.69-7.736,37.536c-2.812-0.399-5.682-0.618-8.602-0.618H336.217   z"/>
	<path id="XMLID_1136_" d="M443.917,396.761c-4.142,0-7.5,3.358-7.5,7.5v79.665c0,4.142,3.358,7.5,7.5,7.5s7.5-3.358,7.5-7.5   v-79.665C451.417,400.119,448.06,396.761,443.917,396.761z"/>
	<path id="XMLID_1137_" d="M378.529,314.007H208.261c-4.142,0-7.5,3.358-7.5,7.5s3.358,7.5,7.5,7.5h170.268   c1.54,0,2.792,1.253,2.792,2.792v162.408c0,1.54-1.253,2.792-2.792,2.792H133.916c-1.54,0-2.792-1.253-2.792-2.792V331.799   c0-1.54,1.253-2.792,2.792-2.792h39.823c4.142,0,7.5-3.358,7.5-7.5s-3.358-7.5-7.5-7.5h-39.823   c-9.811,0-17.792,7.981-17.792,17.792v162.408c0,9.811,7.981,17.792,17.792,17.792h244.613c9.811,0,17.792-7.981,17.792-17.792   V331.799C396.322,321.988,388.34,314.007,378.529,314.007z"/>
	<path id="XMLID_1138_" d="M242.802,454.2h26.396c5.471,0,9.921-4.451,9.921-9.922v-7.117h6.139c6.93,0,12.568-5.638,12.568-12.568   v-17.267c0-23.063-18.763-41.826-41.826-41.826s-41.826,18.763-41.826,41.826v17.267c0,6.93,5.638,12.568,12.568,12.568h6.139   v7.117C232.881,449.749,237.332,454.2,242.802,454.2z M229.174,422.161v-14.835c0-14.792,12.034-26.826,26.826-26.826   s26.826,12.034,26.826,26.826v14.835h-8.785c-5.471,0-9.922,4.451-9.922,9.922v7.117h-16.238v-7.117   c0-5.471-4.451-9.922-9.922-9.922H229.174z"/>
</g>















</svg>
