<svg viewBox="0 0 512.00002 512.00002" xmlns="http://www.w3.org/2000/svg"><path d="m480.3125 238.460938c-32.667969 0-59.644531-24.300782-63.886719-55.808594-.199219.003906-.398437.015625-.597656.015625-44.027344 0-79.71875-35.691407-79.71875-79.71875 0-2.605469.132813-5.179688.378906-7.71875-27.332031-5.460938-47.929687-29.582031-47.929687-58.519531 0-9.390626 2.175781-18.273438 6.039062-26.179688-12.578125-1.960938-25.46875-2.988281-38.597656-2.988281-137.21875 0-248.457031 111.238281-248.457031 248.457031s111.238281 248.457031 248.457031 248.457031 248.457031-111.238281 248.457031-248.457031c0-7.363281-.339843-14.648438-.96875-21.851562-7.195312 2.773437-15.003906 4.3125-23.175781 4.3125zm0 0" fill="#d47a3d"/><path d="m271.460938 10.53125c-3.863282 7.90625-6.039063 16.789062-6.039063 26.179688 0 28.9375 20.597656 53.058593 47.929687 58.519531-.246093 2.539062-.378906 5.113281-.378906 7.71875 0 44.027343 35.691406 79.71875 79.71875 79.71875.203125 0 .398438-.011719.597656-.015625 4.242188 31.507812 31.21875 55.808594 63.886719 55.808594 3.941407 0 7.796875-.367188 11.542969-1.050782-27.277344-4.953125-48.566406-27.066406-52.292969-54.757812-.199219 0-.398437.015625-.597656.015625-44.027344 0-79.722656-35.691407-79.722656-79.71875 0-2.605469.136719-5.179688.378906-7.722657-27.332031-5.457031-47.929687-29.578124-47.929687-58.515624 0-9.390626 2.175781-18.273438 6.042968-26.179688-12.578125-1.960938-25.46875-2.988281-38.597656-2.988281-3.878906 0-7.734375.101562-11.570312.277343 9.148437.421876 18.167968 1.332032 27.03125 2.710938zm0 0" fill="#9f5c2e"/><path d="m503.488281 234.148438c-7.082031 2.734374-14.769531 4.257812-22.804687 4.304687.410156 5.796875.636718 11.644531.636718 17.546875 0 133.339844-105.042968 242.132812-236.886718 248.179688 3.835937.175781 7.6875.277343 11.566406.277343 137.21875 0 248.457031-111.238281 248.457031-248.457031 0-7.363281-.339843-14.648438-.96875-21.851562zm0 0" fill="#9f5c2e"/><path d="m46.007812 396.386719c-2.496093 0-4.941406-1.238281-6.378906-3.503907-25.925781-40.902343-39.628906-88.234374-39.628906-136.882812 0-68.378906 26.628906-132.667969 74.980469-181.019531 48.351562-48.351563 112.640625-74.980469 181.019531-74.980469 13.285156 0 26.664062 1.035156 39.761719 3.078125 2.367187.371094 4.417969 1.84375 5.523437 3.96875 1.109375 2.121094 1.140625 4.648437.089844 6.800781-3.5 7.160156-5.273438 14.851563-5.273438 22.867188 0 24.773437 17.605469 46.273437 41.863282 51.117187 3.792968.757813 6.398437 4.265625 6.03125 8.121094-.230469 2.378906-.34375 4.734375-.34375 7 0 15.609375 5.78125 32.300781 15.46875 44.652344 2.570312 3.28125 1.996094 8.023437-1.28125 10.59375-3.277344 2.570312-8.019532 1.996093-10.589844-1.28125-11.699219-14.917969-18.6875-35.09375-18.6875-53.964844 0-.640625.007812-1.289063.023438-1.9375-27.925782-8.523437-47.574219-34.585937-47.574219-64.300781 0-6.875 1.015625-13.566406 3.023437-20-9.292968-1.082032-18.6875-1.625-28.035156-1.625-64.351562 0-124.847656 25.058594-170.351562 70.558594-45.5 45.503906-70.558594 106.003906-70.558594 170.351562 0 45.785156 12.890625 90.324219 37.285156 128.800781 2.230469 3.523438 1.183594 8.183594-2.332031 10.414063-1.253907.792968-2.652344 1.171875-4.035157 1.171875zm0 0" fill="#18191b"/><path d="m256 512c-76.679688 0-148.679688-33.953125-197.539062-93.15625-2.652344-3.214844-2.199219-7.96875 1.015624-10.621094 3.210938-2.652344 7.96875-2.199218 10.621094 1.015625 45.984375 55.71875 113.742188 87.671875 185.902344 87.671875 64.351562 0 124.847656-25.058594 170.351562-70.558594 45.5-45.503906 70.558594-106 70.558594-170.351562 0-3.894531-.097656-7.859375-.296875-11.859375-5.328125 1.238281-10.777343 1.863281-16.300781 1.863281-33.722656 0-62.839844-23.648437-70.210938-55.980468-12.855468-.84375-25.417968-4.523438-36.640624-10.769532-3.640626-2.023437-4.949219-6.617187-2.925782-10.257812 2.027344-3.640625 6.621094-4.949219 10.261719-2.925782 10.648437 5.921876 22.761719 9.054688 35.03125 9.054688.207031-.007812.375-.015625.539063-.015625h.058593c3.773438 0 6.972657 2.792969 7.476563 6.539063 3.78125 28.085937 28.03125 49.269531 56.410156 49.269531 7.027344 0 13.914062-1.28125 20.464844-3.804688 2.210937-.855469 4.695312-.617187 6.707031.636719 2.011719 1.257812 3.316406 3.386719 3.519531 5.746094.660156 7.589844.996094 15.160156.996094 22.507812 0 68.378906-26.628906 132.664063-74.980469 181.019532-48.351562 48.347656-112.640625 74.976562-181.019531 74.976562zm0 0" fill="#18191b"/><path d="m134.007812 299.785156c0 18.40625-14.917968 33.328125-33.324218 33.328125s-33.328125-14.921875-33.328125-33.328125 14.921875-33.328125 33.328125-33.328125 33.324218 14.921875 33.324218 33.328125zm0 0" fill="#ce4a8a"/><path d="m134.007812 299.785156c0 18.40625-14.917968 33.328125-33.324218 33.328125s-33.328125-14.921875-33.328125-33.328125 14.921875-33.328125 33.328125-33.328125 33.324218 14.921875 33.324218 33.328125zm0 0" fill="#ce4a8a"/><path d="m100.683594 340.65625c-22.539063 0-40.875-18.335938-40.875-40.871094s18.335937-40.871094 40.875-40.871094c22.535156 0 40.871094 18.335938 40.871094 40.871094s-18.335938 40.871094-40.871094 40.871094zm0-66.652344c-14.21875 0-25.785156 11.566406-25.785156 25.78125 0 14.21875 11.566406 25.785156 25.785156 25.785156 14.214844 0 25.78125-11.570312 25.78125-25.785156 0-14.21875-11.566406-25.78125-25.78125-25.78125zm0 0" fill="#18191b"/><path d="m261.394531 124.183594c0 18.539062-15.03125 33.566406-33.570312 33.566406-18.539063 0-33.566407-15.027344-33.566407-33.566406 0-18.539063 15.027344-33.566406 33.566407-33.566406 18.539062 0 33.570312 15.027343 33.570312 33.566406zm0 0" fill="#f9cd45"/><path d="m261.394531 124.183594c0 18.539062-15.03125 33.566406-33.570312 33.566406-18.539063 0-33.566407-15.027344-33.566407-33.566406 0-18.539063 15.027344-33.566406 33.566407-33.566406 18.539062 0 33.570312 15.027343 33.570312 33.566406zm0 0" fill="#f9cd45"/><path d="m227.824219 165.296875c-22.667969 0-41.109375-18.445313-41.109375-41.113281 0-22.667969 18.441406-41.113282 41.109375-41.113282 22.671875 0 41.113281 18.445313 41.113281 41.113282 0 22.667968-18.441406 41.113281-41.113281 41.113281zm0-67.136719c-14.347657 0-26.023438 11.675782-26.023438 26.023438s11.675781 26.023437 26.023438 26.023437c14.351562 0 26.023437-11.675781 26.023437-26.023437s-11.671875-26.023438-26.023437-26.023438zm0 0" fill="#18191b"/><path d="m242.472656 263.839844c0 13.316406-10.792968 24.105468-24.105468 24.105468-13.316407 0-24.109376-10.789062-24.109376-24.105468 0-13.3125 10.792969-24.105469 24.109376-24.105469 13.3125 0 24.105468 10.792969 24.105468 24.105469zm0 0" fill="#e480be"/><path d="m242.472656 263.839844c0 13.316406-10.792968 24.105468-24.105468 24.105468-13.316407 0-24.109376-10.789062-24.109376-24.105468 0-13.3125 10.792969-24.105469 24.109376-24.105469 13.3125 0 24.105468 10.792969 24.105468 24.105469zm0 0" fill="#e480be"/><path d="m218.363281 295.492188c-17.449219 0-31.648437-14.199219-31.648437-31.652344 0-17.449219 14.199218-31.648438 31.648437-31.648438 17.453125 0 31.652344 14.199219 31.652344 31.648438 0 17.453125-14.199219 31.652344-31.652344 31.652344zm0-48.214844c-9.132812 0-16.5625 7.429687-16.5625 16.5625 0 9.132812 7.429688 16.5625 16.5625 16.5625 9.132813 0 16.5625-7.429688 16.5625-16.5625 0-9.132813-7.429687-16.5625-16.5625-16.5625zm0 0" fill="#18191b"/><path d="m134.007812 147.957031c0 13.3125-10.792968 24.105469-24.105468 24.105469s-24.105469-10.792969-24.105469-24.105469 10.792969-24.105469 24.105469-24.105469 24.105468 10.792969 24.105468 24.105469zm0 0" fill="#65cee3"/><path d="m134.007812 147.957031c0 13.3125-10.792968 24.105469-24.105468 24.105469s-24.105469-10.792969-24.105469-24.105469 10.792969-24.105469 24.105469-24.105469 24.105468 10.792969 24.105468 24.105469zm0 0" fill="#65cee3"/><path d="m109.902344 179.609375c-17.453125 0-31.652344-14.199219-31.652344-31.652344s14.199219-31.648437 31.652344-31.648437 31.652344 14.195312 31.652344 31.648437-14.199219 31.652344-31.652344 31.652344zm0-48.214844c-9.132813 0-16.5625 7.429688-16.5625 16.5625 0 9.132813 7.429687 16.5625 16.5625 16.5625 9.132812 0 16.5625-7.429687 16.5625-16.5625 0-9.132812-7.429688-16.5625-16.5625-16.5625zm0 0" fill="#18191b"/><path d="m274.039062 409.230469c0 18.761719-15.207031 33.96875-33.96875 33.96875-18.757812 0-33.96875-15.207031-33.96875-33.96875 0-18.757813 15.210938-33.96875 33.96875-33.96875 18.761719 0 33.96875 15.210937 33.96875 33.96875zm0 0" fill="#65cee3"/><path d="m274.039062 409.230469c0 18.761719-15.207031 33.96875-33.96875 33.96875-18.757812 0-33.96875-15.207031-33.96875-33.96875 0-18.757813 15.210938-33.96875 33.96875-33.96875 18.761719 0 33.96875 15.210937 33.96875 33.96875zm0 0" fill="#65cee3"/><path d="m240.070312 450.742188c-22.890624 0-41.511718-18.621094-41.511718-41.511719s18.621094-41.511719 41.511718-41.511719c22.890626 0 41.511719 18.621094 41.511719 41.511719s-18.621093 41.511719-41.511719 41.511719zm0-67.933594c-14.570312 0-26.425781 11.851562-26.425781 26.421875 0 14.570312 11.855469 26.425781 26.425781 26.425781 14.570313 0 26.425782-11.855469 26.425782-26.425781 0-14.570313-11.855469-26.421875-26.425782-26.421875zm0 0" fill="#18191b"/><path d="m392.402344 349.960938c0 13.167968-10.675782 23.84375-23.84375 23.84375-13.167969 0-23.84375-10.675782-23.84375-23.84375 0-13.167969 10.675781-23.84375 23.84375-23.84375 13.167968 0 23.84375 10.675781 23.84375 23.84375zm0 0" fill="#f9cd45"/><path d="m392.402344 349.960938c0 13.167968-10.675782 23.84375-23.84375 23.84375-13.167969 0-23.84375-10.675782-23.84375-23.84375 0-13.167969 10.675781-23.84375 23.84375-23.84375 13.167968 0 23.84375 10.675781 23.84375 23.84375zm0 0" fill="#f9cd45"/><path d="m368.558594 381.347656c-17.308594 0-31.386719-14.078125-31.386719-31.386718 0-17.308594 14.078125-31.386719 31.386719-31.386719 17.304687 0 31.386718 14.078125 31.386718 31.386719 0 17.308593-14.082031 31.386718-31.386718 31.386718zm0-47.6875c-8.988282 0-16.300782 7.3125-16.300782 16.300782 0 8.988281 7.3125 16.300781 16.300782 16.300781 8.984375 0 16.296875-7.3125 16.296875-16.300781 0-8.988282-7.3125-16.300782-16.296875-16.300782zm0 0" fill="#18191b"/><path d="m392.398438 240.03125c0 19.761719-16.019532 35.78125-35.78125 35.78125-19.761719 0-35.785157-16.019531-35.785157-35.78125s16.023438-35.785156 35.785157-35.785156c19.761718 0 35.78125 16.023437 35.78125 35.785156zm0 0" fill="#fb900d"/><path d="m392.398438 240.03125c0 19.761719-16.019532 35.78125-35.78125 35.78125-19.761719 0-35.785157-16.019531-35.785157-35.78125s16.023438-35.785156 35.785157-35.785156c19.761718 0 35.78125 16.023437 35.78125 35.785156zm0 0" fill="#fb900d"/><path d="m356.617188 283.359375c-23.890626 0-43.328126-19.4375-43.328126-43.328125s19.4375-43.328125 43.328126-43.328125c23.890624 0 43.328124 19.4375 43.328124 43.328125s-19.4375 43.328125-43.328124 43.328125zm0-71.570313c-15.570313 0-28.238282 12.671876-28.238282 28.242188s12.667969 28.238281 28.238282 28.238281c15.570312 0 28.238281-12.667969 28.238281-28.238281s-12.667969-28.242188-28.238281-28.242188zm0 0" fill="#18191b"/></svg>