<?xml version="1.0" encoding="iso-8859-1"?>
<!-- Generator: Adobe Illustrator 19.0.0, SVG Export Plug-In . SVG Version: 6.00 Build 0)  -->
<svg version="1.1" id="Capa_1" xmlns="http://www.w3.org/2000/svg" xmlns:xlink="http://www.w3.org/1999/xlink" x="0px" y="0px"
	 viewBox="0 0 512 512" style="enable-background:new 0 0 512 512;" xml:space="preserve">
<path style="fill:#F7F8F0;" d="M362.73,32.773l126.698,50.463C497.021,86.26,502,93.583,502,101.726V209.52h-90v264.07
	c0,2.75-2.239,4.979-5,4.979H105c-2.761,0-5-2.229-5-4.979V209.52H10V101.726c0-8.143,4.979-15.466,12.572-18.49l126.699-50.463
	c7.087-2.823,14.65-4.273,22.283-4.273h168.891C348.079,28.5,355.643,29.95,362.73,32.773z"/>
<path style="fill:#E5E5E5;" d="M370.203,478.568H121.5H105l-5-7.146V209.52v-59.269c11.874,0,21.5,9.585,21.5,21.408v57.798
	c0,135.39,108.566,247.026,244.522,249.079C367.413,478.557,368.807,478.568,370.203,478.568z M230,118.115h52
	c38.66,0,70-31.206,70-69.701V29.623c-3.798-0.742-7.666-1.123-11.554-1.123H171.555c-3.888,0-7.757,0.381-11.555,1.123v18.792
	C160,86.909,191.34,118.115,230,118.115z M10,101.781v107.794h21.25V93.21c0-6.456,2.907-12.427,7.694-16.44l-16.372,6.521
	C14.979,86.315,10,93.638,10,101.781z"/>
<path style="fill:#787878;" d="M282,88.244h-52c-22.091,0-40-17.909-40-40V28.5h132v19.744C322,70.335,304.091,88.244,282,88.244z"
	/>
<path style="fill:#9B9B9B;" d="M282,88.244h-12.257C236.748,88.244,210,61.495,210,28.5l0,0h112v19.744
	C322,70.335,304.091,88.244,282,88.244z"/>
<path style="fill:#FF4040;" d="M327.146,228.965c-0.026,0.04-0.052,0.08-0.079,0.12c-8.478,12.579-19.133,23.137-31.668,31.382
	l-6.507,4.279c-1.906,1.253-4.09,1.881-6.275,1.881c-2.184,0-4.368-0.627-6.274-1.88l-6.507-4.28
	c-12.535-8.245-23.19-18.803-31.668-31.382c-0.027-0.04-0.053-0.08-0.079-0.12c-7.943-12.287-6.347-28.796,3.794-39.255
	c5.599-5.775,13.064-8.956,21.019-8.956c7.353,0,14.286,2.717,19.715,7.688c5.428-4.971,12.362-7.688,19.715-7.688
	c7.955,0,15.42,3.181,21.02,8.956C333.493,200.168,335.089,216.678,327.146,228.965z"/>
<path style="fill:#787878;" d="M195.976,248.466v-49.552h-8.691c-4.142,0-7.5-3.343-7.5-7.468s3.358-7.468,7.5-7.468h32.383
	c4.142,0,7.5,3.343,7.5,7.468s-3.358,7.468-7.5,7.468h-8.691v49.552h8.691c4.142,0,7.5,3.343,7.5,7.468
	c0,4.125-3.358,7.468-7.5,7.468h-32.383c-4.142,0-7.5-3.343-7.5-7.468s3.358-7.468,7.5-7.468H195.976z M284.729,304.456v25.796
	c0,14.785-13.458,26.815-30,26.815s-30-12.029-30-26.815v-25.796c0-14.785,13.458-26.815,30-26.815S284.729,289.671,284.729,304.456
	z M269.729,304.456c0-6.55-6.729-11.879-15-11.879s-15,5.329-15,11.879v25.796c0,6.55,6.729,11.879,15,11.879s15-5.329,15-11.879
	V304.456z M352.229,275.871h-12.953c-4.142,0-7.5,3.343-7.5,7.468c0,3.552,2.493,6.519,5.83,7.276v39.637
	c0,6.55-5.352,11.879-11.929,11.879c-6.578,0-11.93-5.329-11.93-11.879V290.73c3.657-0.498,6.477-3.612,6.477-7.39
	c0-4.125-3.358-7.468-7.5-7.468h-12.953c-4.142,0-7.5,3.343-7.5,7.468c0,3.778,2.82,6.892,6.477,7.39v39.522
	c0,14.785,12.081,26.815,26.93,26.815s26.929-12.029,26.929-26.815v-39.464c3.966-0.197,7.123-3.451,7.123-7.449
	C359.729,279.214,356.371,275.871,352.229,275.871z M212.229,275.871h-12.953c-4.142,0-7.5,3.343-7.5,7.468
	c0,3.553,2.492,6.527,5.83,7.282v13.2c0,6.55-5.352,11.879-11.929,11.879c-6.578,0-11.93-5.329-11.93-11.879v-13.083
	c3.658-0.497,6.477-3.62,6.477-7.399c0-4.125-3.358-7.468-7.5-7.468h-12.953c-4.142,0-7.5,3.343-7.5,7.468
	c0,3.779,2.818,6.902,6.477,7.399v13.083c0,12.196,8.218,22.516,19.43,25.757c0,0.035,0,0.071,0,0.106V342.3
	c-3.376,0.727-5.906,3.718-5.906,7.299c0,4.125,3.358,7.468,7.5,7.468h11.813c4.142,0,7.5-3.343,7.5-7.468
	c0-3.58-2.53-6.571-5.906-7.299v-12.616c0-0.035,0-0.071-0.001-0.106c11.212-3.241,19.43-13.561,19.43-25.757v-13.024
	c3.967-0.195,7.123-3.46,7.123-7.458C219.729,279.214,216.371,275.871,212.229,275.871z"/>
<g>
	<path style="fill:#C8C8C8;" d="M107.5,147.987v70.109c0,4.125-3.358,7.468-7.5,7.468s-7.5-3.343-7.5-7.468v-70.109
		c0-4.125,3.358-7.468,7.5-7.468S107.5,143.862,107.5,147.987z M412,140.519c-4.142,0-7.5,3.343-7.5,7.468v70.109
		c0,4.125,3.358,7.468,7.5,7.468s7.5-3.343,7.5-7.468v-70.109C419.5,143.862,416.142,140.519,412,140.519z"/>
	<path style="fill:#C8C8C8;" d="M105,230.135H5c-2.761,0-5-2.229-5-4.979v-19.915c0-2.75,2.239-4.979,5-4.979h100
		c2.761,0,5,2.229,5,4.979v19.915C110,227.905,107.761,230.135,105,230.135z M507,200.263H407c-2.761,0-5,2.229-5,4.979v19.915
		c0,2.75,2.239,4.979,5,4.979h100c2.761,0,5-2.229,5-4.979v-19.915C512,202.492,509.761,200.263,507,200.263z M411,453.628H101
		c-2.761,0-5,2.229-5,4.979v19.914c0,2.75,2.239,4.979,5,4.979h310c2.761,0,5-2.229,5-4.979v-19.914
		C416,455.857,413.761,453.628,411,453.628z"/>
</g>
<path style="fill:#B4B4B4;" d="M116,458.607v19.914c0,2.75,2.239,4.979,5,4.979h-20c-2.761,0-5-2.229-5-4.979v-19.914
	c0-2.75,2.239-4.979,5-4.979h20C118.239,453.628,116,455.857,116,458.607z M422,225.156v-19.915c0-2.75,2.239-4.979,5-4.979h-20
	c-2.761,0-5,2.229-5,4.979v19.915c0,2.75,2.239,4.979,5,4.979h20C424.239,230.135,422,227.905,422,225.156z M25,200.263H5
	c-2.761,0-5,2.229-5,4.979v19.915c0,2.75,2.239,4.979,5,4.979h20c-2.761,0-5-2.229-5-4.979v-19.915
	C20,202.492,22.239,200.263,25,200.263z"/>
<g>
</g>
<g>
</g>
<g>
</g>
<g>
</g>
<g>
</g>
<g>
</g>
<g>
</g>
<g>
</g>
<g>
</g>
<g>
</g>
<g>
</g>
<g>
</g>
<g>
</g>
<g>
</g>
<g>
</g>
</svg>
