<svg id="Capa_1" enable-background="new 0 0 512 512" height="512" viewBox="0 0 512 512" width="512" xmlns="http://www.w3.org/2000/svg"><path d="m376 0h-240c-20.678 0-37.5 16.822-37.5 37.5v181c0 4.142 3.358 7.5 7.5 7.5s7.5-3.358 7.5-7.5v-181c0-12.407 10.093-22.5 22.5-22.5h41.894l19.017 19.017c7.082 7.083 16.499 10.983 26.515 10.983h65.147c10.017 0 19.434-3.9 26.516-10.983l19.017-19.017h41.894c12.407 0 22.5 10.093 22.5 22.5v392c0 12.407-10.093 22.5-22.5 22.5h-240c-12.407 0-22.5-10.093-22.5-22.5v-181c0-4.142-3.358-7.5-7.5-7.5s-7.5 3.358-7.5 7.5v226c0 20.678 16.822 37.5 37.5 37.5h240c20.678 0 37.5-16.822 37.5-37.5v-437c0-20.678-16.822-37.5-37.5-37.5zm-71.517 23.41c-4.25 4.25-9.9 6.59-15.91 6.59h-65.147c-6.01 0-11.66-2.34-15.91-6.59l-8.41-8.41h113.787zm71.517 473.59h-240c-12.407 0-22.5-10.093-22.5-22.5v-15.02c6.272 4.719 14.064 7.52 22.5 7.52h240c8.436 0 16.228-2.801 22.5-7.52v15.02c0 12.407-10.093 22.5-22.5 22.5z"/></svg>