<svg height="512pt" viewBox="-5 0 512 512" width="512pt" xmlns="http://www.w3.org/2000/svg"><path d="m378.035156 0h-303.019531c-41.429687 0-75.015625 33.585938-75.015625 75.015625v201.5625c0 41.429687 33.585938 75.015625 75.015625 75.015625h23.429687v103.195312l104.472657-103.195312h175.117187c41.429688 0 75.015625-33.585938 75.015625-75.015625v-201.5625c0-41.429687-33.585937-75.015625-75.015625-75.015625zm0 0" fill="#ffc73b"/><g fill="#ff4440"><path d="m93.585938 60.652344h-40.398438c-3.265625 0-5.027344 3-5.027344 5.824218 0 3.429688 2.160156 6.019532 5.027344 6.019532h14.03125v59.789062c0 2.914063 2.613281 5.027344 6.21875 5.027344 3.601562 0 6.214844-2.113281 6.214844-5.027344v-59.789062h13.933594c2.914062 0 5.027343-2.535156 5.027343-6.023438 0-3.371094-2.113281-5.820312-5.027343-5.820312zm0 0"/><path d="m117.105469 137.3125c3.605469 0 6.21875-2.113281 6.21875-5.027344v-29.121094h22.800781v29.121094c0 2.914063 2.617188 5.027344 6.21875 5.027344s6.21875-2.113281 6.21875-5.027344v-66.703125c0-2.902343-2.558594-4.929687-6.21875-4.929687s-6.21875 2.027344-6.21875 4.929687v26.535157h-22.800781v-26.535157c0-2.902343-2.554688-4.929687-6.21875-4.929687-3.660157 0-6.21875 2.027344-6.21875 4.929687v66.703125c0 2.914063 2.617187 5.027344 6.21875 5.027344zm0 0"/><path d="m226.253906 130.6875-20.34375-66.320312c-.8125-2.578126-3.671875-4.308594-7.113281-4.308594-3.59375 0-6.320313 1.660156-7.121094 4.324218l-20.234375 65.964844-.046875.132813c-.101562.285156-.257812.714843-.257812 1.308593 0 3.601563 4.128906 5.523438 7.113281 5.523438 2.507812 0 4.390625-1.246094 5.039062-3.355469l3.9375-13.320312h23.039063l3.941406 13.34375c.632813 2.054687 2.527344 3.332031 4.9375 3.332031 3.410157 0 7.210938-2.308594 7.210938-5.625 0-.316406-.058594-.570312-.101563-.691406zm-19.183594-21h-16.738281l8.445313-28.09375zm0 0"/><path d="m280.480469 60.652344c-3.660157 0-6.214844 2.027344-6.214844 4.929687v42.214844l-20.847656-40.769531c-1.585938-3.085938-3.65625-6.375-8.175781-6.375-3.777344 0-6.21875 1.9375-6.21875 4.929687v66.703125c0 2.914063 2.617187 5.027344 6.21875 5.027344 3.601562 0 6.21875-2.113281 6.21875-5.027344v-42.292968l21.9375 42.441406.023437.042968c1.703125 3.117188 4.207031 4.835938 7.058594 4.835938 3.605469 0 6.21875-2.113281 6.21875-5.023438v-66.707031c0-2.902343-2.554688-4.929687-6.21875-4.929687zm0 0"/><path d="m353.257812 128.671875-22.800781-34.488281 19.289063-24.113282c.746094-.894531 1.171875-2.023437 1.171875-3.101562 0-3.398438-3.746094-6.316406-6.8125-6.316406-1.613281 0-3.191407.773437-4.105469 1.992187l-22.929688 29.773438v-26.835938c0-2.902343-2.558593-4.929687-6.21875-4.929687-3.660156 0-6.21875 2.027344-6.21875 4.929687v66.703125c0 2.914063 2.617188 5.027344 6.21875 5.027344 3.601563 0 6.21875-2.113281 6.21875-5.027344v-21.21875l5.148438-6.472656 20.179688 30.316406c1.117187 1.679688 2.816406 2.601563 4.78125 2.601563 3.617187 0 6.914062-2.964844 6.914062-6.21875 0-.828125-.257812-1.660157-.835938-2.621094zm0 0"/><path d="m157.40625 179.757812c-3.042969 0-4.355469 2.460938-4.804688 3.304688l-15.550781 30.480469-15.65625-30.515625c-.8125-1.519532-2.089843-3.265625-4.785156-3.265625-2.867187 0-7.015625 1.964843-7.015625 5.523437 0 .539063.101562 1.40625.5625 2.492188l20.628906 38.480468.054688.089844v25.046875c0 2.910157 2.613281 5.027344 6.214844 5.027344 3.605468 0 6.21875-2.117187 6.21875-5.027344v-25.113281c0-.039062 0-.074219 0-.109375l20.503906-38.230469.078125-.160156c.464843-1.085938.5625-1.957031.5625-2.496094 0-3.304687-3.625-5.527344-7.011719-5.527344zm0 0"/><path d="m198.496094 179.757812c-15.082032 0-23.390625 8.414063-23.390625 23.691407v29.875c0 15.277343 8.308593 23.6875 23.390625 23.6875 14.929687 0 23.492187-8.632813 23.492187-23.6875v-29.875c0-15.054688-8.5625-23.691407-23.492187-23.691407zm11.054687 23.691407v29.875c0 8.105469-3.617187 12.046875-11.054687 12.046875-7.371094 0-10.953125-3.941406-10.953125-12.046875v-29.875c0-8.105469 3.582031-12.046875 10.953125-12.046875 7.4375 0 11.054687 3.941406 11.054687 12.046875zm0 0"/><path d="m280.183594 179.757812c-3.71875 0-6.21875 1.984376-6.21875 4.929688v48.640625c0 8.105469-3.710938 12.042969-11.351563 12.042969-7.570312 0-11.25-3.9375-11.25-12.042969v-48.640625c0-2.902344-2.558593-4.929688-6.21875-4.929688-3.660156 0-6.21875 2.027344-6.21875 4.929688v48.640625c0 15.273437 8.414063 23.6875 23.6875 23.6875 15.121094 0 23.789063-8.636719 23.789063-23.6875v-48.640625c0-2.855469-2.617188-4.929688-6.21875-4.929688zm0 0"/></g><path d="m354.511719 319.933594c-29.6875 45.804687-30.761719 101.910156-7.710938 147.316406 50.855469 2.496094 101.632813-21.390625 131.320313-67.195312 29.6875-45.808594 30.761718-101.910157 7.714844-147.316407-50.859376-2.496093-101.632813 21.390625-131.324219 67.195313zm0 0" fill="#adc165"/><path d="m322.769531 512c-1.433593 0-2.882812-.402344-4.171875-1.238281-3.5625-2.308594-4.578125-7.066407-2.269531-10.628907l129.460937-199.734374c2.308594-3.5625 7.070313-4.578126 10.625-2.269532 3.5625 2.308594 4.578126 7.066406 2.269532 10.628906l-129.457032 199.734376c-1.472656 2.273437-3.941406 3.507812-6.457031 3.507812zm0 0" fill="#99aa52"/><path d="m413.308594 372.308594c-3.730469 0-7.003906-2.71875-7.585938-6.519532l-4.796875-31.253906c-.644531-4.195312 2.234375-8.117187 6.429688-8.761718 4.203125-.640626 8.117187 2.234374 8.761719 6.429687l3.628906 23.660156 23.660156-3.628906c4.191406-.644531 8.117188 2.234375 8.761719 6.425781.644531 4.195313-2.234375 8.121094-6.429688 8.761719l-31.253906 4.796875c-.398437.0625-.789063.089844-1.175781.089844zm0 0" fill="#99aa52"/><path d="m378.457031 426.078125c-3.730469 0-7.003906-2.71875-7.585937-6.519531l-6.460938-42.109375c-.644531-4.195313 2.234375-8.117188 6.429688-8.761719 4.191406-.640625 8.117187 2.234375 8.761718 6.429688l5.292969 34.511718 34.515625-5.296875c4.195313-.640625 8.117188 2.234375 8.761719 6.429688.644531 4.195312-2.234375 8.121093-6.429687 8.761719l-42.109376 6.464843c-.394531.058594-.789062.089844-1.175781.089844zm0 0" fill="#99aa52"/></svg>