<?xml version="1.0" encoding="iso-8859-1"?>
<!-- Generator: Adobe Illustrator 18.0.0, SVG Export Plug-In . SVG Version: 6.00 Build 0)  -->
<!DOCTYPE svg PUBLIC "-//W3C//DTD SVG 1.1//EN" "http://www.w3.org/Graphics/SVG/1.1/DTD/svg11.dtd">
<svg version="1.1" id="Capa_1" xmlns="http://www.w3.org/2000/svg" xmlns:xlink="http://www.w3.org/1999/xlink" x="0px" y="0px"
	 viewBox="0 0 58 58" style="enable-background:new 0 0 58 58;" xml:space="preserve">
<g>
	<g>
		<circle style="fill:#ECF0F1;" cx="29" cy="29" r="29"/>
		<path style="fill:#545E73;" d="M29,4c13.785,0,25,11.215,25,25S42.785,54,29,54S4,42.785,4,29S15.215,4,29,4 M29,0
			C12.984,0,0,12.984,0,29s12.984,29,29,29s29-12.984,29-29S45.016,0,29,0L29,0z"/>
		<g>
			<path style="fill:#8697CB;" d="M29,5.879c-0.552,0-1,0.447-1,1v1c0,0.553,0.448,1,1,1s1-0.447,1-1v-1
				C30,6.326,29.552,5.879,29,5.879z"/>
			<path style="fill:#8697CB;" d="M29,48.879c-0.552,0-1,0.447-1,1v1c0,0.553,0.448,1,1,1s1-0.447,1-1v-1
				C30,49.326,29.552,48.879,29,48.879z"/>
			<path style="fill:#8697CB;" d="M51,27.879h-1c-0.552,0-1,0.447-1,1s0.448,1,1,1h1c0.552,0,1-0.447,1-1S51.552,27.879,51,27.879z"
				/>
			<path style="fill:#8697CB;" d="M8,27.879H7c-0.552,0-1,0.447-1,1s0.448,1,1,1h1c0.552,0,1-0.447,1-1S8.552,27.879,8,27.879z"/>
			<path style="fill:#8697CB;" d="M43.849,12.615l-0.707,0.707c-0.391,0.391-0.391,1.023,0,1.414
				c0.195,0.195,0.451,0.293,0.707,0.293s0.512-0.098,0.707-0.293l0.707-0.707c0.391-0.391,0.391-1.023,0-1.414
				S44.24,12.224,43.849,12.615z"/>
			<path style="fill:#8697CB;" d="M13.444,43.021l-0.707,0.707c-0.391,0.391-0.391,1.023,0,1.414
				c0.195,0.195,0.451,0.293,0.707,0.293s0.512-0.098,0.707-0.293l0.707-0.707c0.391-0.391,0.391-1.023,0-1.414
				S13.834,42.631,13.444,43.021z"/>
			<path style="fill:#8697CB;" d="M44.556,43.021c-0.391-0.391-1.023-0.391-1.414,0s-0.391,1.023,0,1.414l0.707,0.707
				c0.195,0.195,0.451,0.293,0.707,0.293s0.512-0.098,0.707-0.293c0.391-0.391,0.391-1.023,0-1.414L44.556,43.021z"/>
			<path style="fill:#8697CB;" d="M14.151,12.615c-0.391-0.391-1.023-0.391-1.414,0s-0.391,1.023,0,1.414l0.707,0.707
				c0.195,0.195,0.451,0.293,0.707,0.293s0.512-0.098,0.707-0.293c0.391-0.391,0.391-1.023,0-1.414L14.151,12.615z"/>
		</g>
		<path style="fill:#545E73;" d="M26,29.879h-8c-0.553,0-1-0.447-1-1s0.447-1,1-1h8c0.553,0,1,0.447,1,1S26.553,29.879,26,29.879z"
			/>
		<path style="fill:#545E73;" d="M29,26.879c-0.553,0-1-0.447-1-1v-11c0-0.553,0.447-1,1-1s1,0.447,1,1v11
			C30,26.432,29.553,26.879,29,26.879z"/>
		<path style="fill:#545E73;" d="M29,32.879c-2.206,0-4-1.794-4-4s1.794-4,4-4s4,1.794,4,4S31.206,32.879,29,32.879z M29,26.879
			c-1.103,0-2,0.897-2,2s0.897,2,2,2s2-0.897,2-2S30.103,26.879,29,26.879z"/>
	</g>
	<g>
		<path style="fill:#ED7161;" d="M45.39,41.2c0.969-2.183,3.109-4.2,5.684-4.2c3.467,0,5.964,2.821,6.278,6.183
			c0,0,0.17,0.835-0.203,2.337c-0.508,2.046-1.701,3.864-3.311,5.251L45.39,58l-8.447-7.229c-1.61-1.387-2.803-3.205-3.311-5.251
			c-0.373-1.502-0.203-2.337-0.203-2.337C33.742,39.821,36.239,37,39.706,37C42.28,37,44.421,39.017,45.39,41.2z"/>
	</g>
</g>
<g>
</g>
<g>
</g>
<g>
</g>
<g>
</g>
<g>
</g>
<g>
</g>
<g>
</g>
<g>
</g>
<g>
</g>
<g>
</g>
<g>
</g>
<g>
</g>
<g>
</g>
<g>
</g>
<g>
</g>
</svg>
